<?xml version="1.0" encoding="iso-8859-1"?>
<!-- Generator: Adobe Illustrator 18.1.1, SVG Export Plug-In . SVG Version: 6.00 Build 0)  -->
<svg version="1.1" fill="rgb(255, 255, 255)" id="Capa_1" xmlns="http://www.w3.org/2000/svg" xmlns:xlink="http://www.w3.org/1999/xlink" x="0px" y="0px"
	 viewBox="0 0 23.586 23.586" style="enable-background:new 0 0 23.586 23.586;" xml:space="preserve" width="22" height="22">
<g>
	<path d="M15.106,1.22C12.73,1.801,10.76,2.658,9.087,3.655L6.157,0c0,0-3.66,0.318-4.879,3.616l2.955,4.178
		c-3.13,3.808-3.724,7.662-3.724,7.662C1.86,12.515,3.301,10.255,4.734,8.5l0.74,1.044c-2.63,3.19-2.931,6.194-2.931,6.194
		c-1.311,11.312,9.713,7.068,9.713,7.068C21.66,18.45,23.063,9.671,23.063,9.671C23.467-0.405,15.106,1.22,15.106,1.22z
		 M8.196,4.196L8.196,4.196l0.457,0.581L9.6,5.976l0,0l0.153,0.197l3.249,4.12c0,0-1.5,0.415-2.719-0.126L8.248,7.619l0,0
		l-0.31-0.388L7.023,6.086l0,0L6.522,5.461l0,0L6.177,5.028c0,0,0.768-0.832,1.92-0.961L8.196,4.196z M13.717,14.553
		c-0.754-0.209-0.778,0.587-0.778,0.587l-3.348-1.718c0.629-0.948,0.544-2.666,0.544-2.666c1.673,0.27,3.21-0.361,3.21-0.361v0.361
		L13.717,14.553z M1.955,3.661C3.13,1.175,5.976,0.723,5.976,0.723l0.407,0.725C3.263,2.171,2.452,4.34,2.452,4.34L1.955,3.661z
		 M2.814,4.926c1.4-2.349,3.885-2.936,3.885-2.936l0.858,1.084C4.711,3.797,3.674,6.146,3.674,6.146L2.814,4.926z M4.947,7.839
		l-0.36-0.472l0,0L4.17,6.825c0.406-1.086,1.399-1.627,1.399-1.627L6.147,5.96l0.415,0.545l0,0l0.823,1.087l0,0l0.188,0.247
		l1.978,2.602c0.225,1.309-0.545,2.667-0.545,2.667l-2.78-3.612l0,0L5.889,9.057l0,0L4.947,7.839z M22.111,9.152
		c-0.767,8.656-9.108,12.405-9.108,12.405c-6.08,3.074-8.382-0.496-8.382-0.496c-2.847-4.157-0.946-7.458,0.814-10.454
		c0.118-0.202,0.244-0.395,0.38-0.582L8.51,13.83l6.142,2.801l-0.677-6.87l-3.006-3.754c4.313-2.854,7.439-0.537,7.439-0.537
		c5.331,4.246-3.757,11.161-3.757,11.161c5.198-2.395,5.834-6.236,5.834-6.236c1.76-8.813-6.959-6.328-6.959-6.328
		c-1.113,0.414-2.112,0.878-3.012,1.374L9.538,4.223c3.084-1.846,5.386-1.691,5.386-1.691C23.351,1.614,22.111,9.152,22.111,9.152z"
		/>
	<g>
	</g>
	<g>
	</g>
	<g>
	</g>
	<g>
	</g>
	<g>
	</g>
	<g>
	</g>
	<g>
	</g>
	<g>
	</g>
	<g>
	</g>
	<g>
	</g>
	<g>
	</g>
	<g>
	</g>
	<g>
	</g>
	<g>
	</g>
	<g>
	</g>
</g>
<g>
</g>
<g>
</g>
<g>
</g>
<g>
</g>
<g>
</g>
<g>
</g>
<g>
</g>
<g>
</g>
<g>
</g>
<g>
</g>
<g>
</g>
<g>
</g>
<g>
</g>
<g>
</g>
<g>
</g>
</svg>
