<svg id="Capa_1" fill="rgb(255, 255, 255)" height="22" width="22" enable-background="new 0 0 512.049 512.049" viewBox="0 0 512.049 512.049" xmlns="http://www.w3.org/2000/svg"><g><path d="m452.049 362.024c0 8.284 6.716 15 15 15s15-6.716 15-15v-54c0-54.441-50.499-96-107-96h-23.279l-141.721-141.72v-55.28c0-8.284-6.716-15-15-15s-15 6.716-15 15v57.266l-169.828 207.568c-14.701 17.969-13.408 43.899 3.009 60.315l122.523 122.523c16.441 16.441 42.371 17.689 60.315 3.008l203.124-166.192c31.005 9.134 52.857 34.526 52.857 62.512zm-1.744-67.693c-10.917-9.783-24.194-17.543-39.066-22.466-1.515-2.197-.26-.489-29.179-29.55 33.251 2.713 61.151 24.463 68.245 52.016zm-255.256-22.307c8.271 0 15 6.729 15 15s-6.729 15-15 15-15-6.729-15-15 6.728-15 15-15zm-17.978 170.463c-5.991 4.901-14.633 4.469-20.105-1.002l-122.524-122.524c-5.473-5.473-5.903-14.116-1.003-20.105l146.609-179.189v124.938c-17.459 6.192-30 22.865-30 42.42 0 24.813 20.187 45 45 45s45-20.187 45-45c0-19.555-12.541-36.228-30-42.42v-131.875c14.64 14.64 143.717 143.717 166.526 166.526z"/><path d="m506.035 444.542-25.997-45.019c-5.752-9.961-20.196-10.015-25.979 0l-25.997 45.019c-3.935 6.812-6.014 14.586-6.014 22.482 0 24.813 20.187 45 45 45s45-20.187 45-45c.001-7.895-2.078-15.67-6.013-22.482zm-38.986 37.482c-8.271 0-15-6.729-15-15 0-6.709 3.29-8.668 15-30.004 11.964 21.799 15 23.318 15 30.004 0 8.271-6.729 15-15 15z"/></g></svg>