<?xml version="1.0" encoding="iso-8859-1"?>
<!-- Generator: Adobe Illustrator 19.0.0, SVG Export Plug-In . SVG Version: 6.00 Build 0)  -->
<svg version="1.1" fill="rgb(255, 255, 255)" id="Capa_1" xmlns="http://www.w3.org/2000/svg" xmlns:xlink="http://www.w3.org/1999/xlink" x="0px" y="0px"
	 viewBox="0 0 480 480" style="enable-background:new 0 0 480 480;" xml:space="preserve" width="22" height="22">
<g>
	<g>
		<g>
			<path d="M472,72H8c-4.418,0-8,3.582-8,8v320c0,4.418,3.582,8,8,8h464c4.418,0,8-3.582,8-8V80C480,75.582,476.418,72,472,72z
				 M464,392H16V88h448V392z"/>
			<path d="M80,152h64v-48H32v112h48V152z M64,200H48v-80h80v16H64V200z"/>
			<path d="M448,264h-48v64h-64v48h112V264z M432,360h-80v-16h64v-64h16V360z"/>
		</g>
	</g>
</g>
<g>
</g>
<g>
</g>
<g>
</g>
<g>
</g>
<g>
</g>
<g>
</g>
<g>
</g>
<g>
</g>
<g>
</g>
<g>
</g>
<g>
</g>
<g>
</g>
<g>
</g>
<g>
</g>
<g>
</g>
</svg>
