<?xml version="1.0" encoding="utf-8"?>
<!-- Svg Vector Icons : http://www.onlinewebfonts.com/icon -->
<!DOCTYPE svg PUBLIC "-//W3C//DTD SVG 1.1//EN" "http://www.w3.org/Graphics/SVG/1.1/DTD/svg11.dtd">
<svg height="22" fill="rgb(255, 255, 255)" width="22" version="1.1" xmlns="http://www.w3.org/2000/svg" xmlns:xlink="http://www.w3.org/1999/xlink" x="0px" y="0px" viewBox="0 0 1000 1000" enable-background="new 0 0 1000 1000" xml:space="preserve">
<metadata> Svg Vector Icons : http://www.onlinewebfonts.com/icon </metadata>
<g><g transform="translate(0.000000,511.000000) scale(0.100000,-0.100000)"><path d="M4377.7,4461.4c-513-513-552-555.9-552-618.4c2-76.1,27.3-119,91.7-152.1c95.6-50.7,119-35.1,526.7,370.6l396,394V2364.5V273.4H2749h-2093l384.3,386.2c236,236,388.2,403.8,396,436.9c25.4,97.5-54.6,189.2-165.8,191.2c-62.4,0-105.3-39-618.4-552C141,226.6,100,179.8,100,117.4S142.9,8.1,661.8-510.8c618.4-618.4,614.5-616.4,727.6-505.2c107.3,109.2,97.5,122.9-337.5,561.8l-394,396H2749H4840v-2077.4c0-1143.1-5.8-2077.4-15.6-2077.4c-7.8,0-185.3,171.7-394,380.4c-341.4,341.4-386.2,380.4-444.7,380.4c-85.8,0-160-74.1-160-160c0-58.5,50.7-117,563.7-628.1c555.9-554,565.7-563.7,630.1-550.1c50.7,9.8,173.6,122.9,604.7,552c362.8,362.8,544.2,557.9,552,595c23.4,99.5-54.6,189.2-163.9,191.2c-62.4,0-101.4-33.2-454.5-384.3l-386.2-384.3v2081.3V-58.2H7253h2081.3L8950-444.4c-333.6-335.5-384.3-394-384.3-446.7c0-33.2,5.8-76.1,11.7-93.6c19.5-46.8,120.9-91.7,181.4-78c35.1,7.8,234.1,193.1,596.9,555.9C9866.8,4.2,9900,41.3,9900,107.6c0,66.3-35.1,103.4-554,624.2c-503.3,503.3-561.8,555.9-620.3,555.9c-89.7,0-160-74.1-160-167.8c0-68.3,23.4-95.6,384.3-458.4l384.3-388.2H7253H5171.6v2089.1v2091.1l380.4-384.3c232.1-230.2,401.8-386.2,433-394c101.4-25.4,220.4,89.7,195.1,189.2c-7.8,25.4-255.5,288.7-565.7,598.8c-509.1,507.2-557.9,550.1-618.4,550.1C4933.7,5013.4,4884.9,4970.5,4377.7,4461.4z"/></g></g>
</svg>