<svg id="Capa_1" fill="rgb(255, 255, 255)" height="22" width="22" enable-background="new 0 0 512 512" viewBox="0 0 512 512" xmlns="http://www.w3.org/2000/svg"><path d="m507.606 155.023-150.632-150.629c-2.813-2.814-6.628-4.394-10.606-4.394s-7.794 1.58-10.607 4.394l-56.4 56.398c-2.813 2.813-4.394 6.628-4.394 10.606 0 3.979 1.581 7.794 4.394 10.607l13.841 13.84c-33.74 29.925-72.881 47.928-116.557 53.559-36.544 4.712-62.791-1.46-63.013-1.515-7.85-1.938-15.823 2.692-18.028 10.47l-94.348 332.638c-2.421 5.543-1.342 12.235 3.236 16.719 2.919 2.859 6.709 4.284 10.496 4.284 2.481 0 4.957-.618 7.19-1.838l331.451-93.773c7.783-2.202 12.419-10.179 10.479-18.031-.243-.984-22.395-95.369 52.059-179.552l13.827 13.827c2.929 2.93 6.767 4.394 10.607 4.394 3.838 0 7.678-1.465 10.607-4.394l56.4-56.397c2.813-2.813 4.394-6.628 4.394-10.606s-1.582-7.795-4.396-10.607zm-174.946 177.892c-3.06 24.854-1.76 45.431-.144 58.27l-266.826 75.489 118.383-120.861c9.316 5.464 19.949 8.387 31.035 8.387 16.43 0 31.877-6.397 43.495-18.016h.001c23.982-23.982 23.982-63.005-.001-86.987s-63.006-23.982-86.989 0c-20.481 20.481-23.457 51.923-8.956 75.607l-116.943 119.39 75.082-264.715c12.839 1.616 33.42 2.919 58.28-.143 35.648-4.389 86.991-18.911 135.359-62.257l80.483 80.481c-43.346 48.366-57.869 99.708-62.259 135.355zm-139.834-62.506c6.144-6.144 14.211-9.214 22.281-9.214 8.068 0 16.139 3.072 22.281 9.214 12.286 12.286 12.286 32.275 0 44.561-5.952 5.951-13.864 9.228-22.281 9.228s-16.329-3.277-22.281-9.228c-12.285-12.285-12.285-32.275 0-44.561zm247.774-69.595-14.155-14.154c-.002-.002-.003-.003-.004-.005-.002-.002-.003-.003-.005-.005l-115.254-115.252 35.186-35.185 129.418 129.416z"/></svg>