<svg viewBox="0 0 60 60" width="22" height="22" xmlns="http://www.w3.org/2000/svg"><g id="Page-1" fill="none" fill-rule="evenodd"><g id="006---Witch-Hat-And-Broom" fill="rgb(255, 255, 255)" fill-rule="nonzero"><path id="Shape" d="m30 45c14.908 0 30-2.748 30-8 0-4.571-11.1-6.525-16.587-7.211l-4.301-16.489 3.624-3.624c1.9531976.9326086 4.1004758 1.3864713 6.264 1.324 5.612 0 7.837-5.4 7.929-5.629.1231031-.3081337.0853464-.65726373-.1007865-.93195502s-.4963992-.43916681-.8282135-.43904498c-5.4455946-.15343127-10.801076-1.42796231-15.732-3.744-.8458538-.37395618-1.8173198-.33443266-2.63.107l-13.709 7.545c-.3920852.20634191-.733598.49696932-1 .851-4.421 5.889-6.414 15.021-7.293 21.15-6.175.84-15.636 2.823-15.636 7.091 0 5.252 15.092 8 30 8zm12.8-9.623c-2.2142285.6761744-4.493431 1.1176023-6.8 1.317v-2.981c2.0577059-.1826593 4.097529-.5294293 6.1-1.037zm-12.8 1.623c-1.362 0-2.7-.048-4-.134l.006-5.99c2.6617165.1669978 5.3312835.1669978 7.993 0v5.991c-1.299.084-2.639.133-3.999.133zm-12.953-1.671c.042-.55.127-1.537.278-2.824 2.1836513.6039477 4.4179531 1.0069589 6.675 1.204v2.991c-2.3605314-.2034716-4.6919172-.6631768-6.953-1.371zm7.483-25.37c.0944874-.12263111.2150648-.22271379.353-.293l13.7-7.542c.1482764-.08061907.3142258-.12322305.483-.124.1352204.00017227.2688528.02914868.392.085 4.6878856 2.16539449 9.7251151 3.47533153 14.874 3.868-1.1492725 1.85036746-3.1543625 2.99618688-5.332 3.047-2.0567114.10518576-4.1001864-.38433169-5.886-1.41h-.008c-.1436091-.08875094-.2797284-.18908458-.407-.3-.352271-.34581691-.9041824-.3828413-1.2994866-.08717469-.3953043.29566661-.5157166.83555346-.2835134 1.27117469l-3.823 3.823-2 2c-.2599566.2510745-.3642126.6228779-.2726972.9725073.0915155.3496295.3645604.6226744.7141899.7141899.3496294.0915154.7214328-.0127406.9725073-.2726972l.766-.766 4.12 15.8c-1.8363037.466034-3.7063952.7870224-5.593.96v-.831c-.0003156-.5509327-.2278808-1.0773357-.629-1.455-.4058512-.3762502-.9474939-.5708805-1.5-.539-2.5758821.1589994-5.1591179.1589994-7.735 0-.5526928-.0331761-1.0948295.1616317-1.5.539-.4037025.3764527-.6338698.9030146-.636 1.455v.826c-2.1715819-.1954264-4.3196144-.5972408-6.415-1.2.815-5.774 2.722-14.914 6.945-20.541zm-9.162 22.012c-.159 1.34-.257 2.444-.315 3.208-.0636292.9088712.4920285 1.7468719 1.354 2.042 2.784144.8676626 5.6624228 1.3977924 8.573 1.579h.02.009c1.6.128 3.268.2 4.991.2s3.393-.073 4.991-.2h.009.021c2.8550974-.1806685 5.6796214-.6917473 8.417-1.523.9964152-.3373688 1.5635503-1.3865687 1.3-2.405l-.779-2.988c10.185 1.36 14.041 3.822 14.041 5.116 0 2.505-10.652 6-28 6s-28-3.495-28-6c0-1.291 3.6-3.636 13.368-5.029z"/><path id="Shape" d="m21.757 24.338c.0798352.0197527.1617577.0298251.244.03.4583065-.0004704.8576317-.3124303.969-.757.8360178-3.8874812 2.3709096-7.5908736 4.53-10.93.2131638-.290786.2532897-.6738062.1050192-1.0024567s-.4619775-.5520391-.8210472-.5846622-.7078994.1305712-.912972.4271189c-2.3037964 3.540631-3.9429185 7.4715422-4.837 11.6-.0657733.2572727-.0265178.5301418.1091107.7584404.1356286.2282986.3564915.3932776.6138893.4585596z"/><path id="Shape" d="m31 33h-2c-.5522847 0-1 .4477153-1 1s.4477153 1 1 1h2c.5522847 0 1-.4477153 1-1s-.4477153-1-1-1z"/><path id="Shape" d="m1.142 58.205c1.436.67 4.758 1.795 10.858 1.795 2.0024381.0668421 3.9518454-.6507752 5.433-2h3.331l3.436 1.716c.7126245.3558075 1.5482873.3686674 2.2715228.0349562.7232354-.3337113 1.2557429-.9778646 1.4474772-1.7509562h30.081c1.1045695 0 2-.8954305 2-2v-2c0-1.1045695-.8954305-2-2-2h-30.081c-.1917343-.7730916-.7242418-1.4172449-1.4474772-1.7509562-.7232355-.3337112-1.5588983-.3208513-2.2715228.0349562l-3.436 1.716h-3.331c-1.4811546-1.3492248-3.4305619-2.0668421-5.433-2-6.1 0-9.422 1.125-10.858 1.8-.69534671.3302309-1.13945427 1.0302253-1.142 1.8v2.8c.00062085.7715821.44502604 1.4739914 1.142 1.805zm18.858-2.205h-2v-2h2zm38 0h-30v-2h30zm-32.91-3.927c.1947783-.0968292.4257605-.0861509.6107743.0282361.1850138.1143869.2977966.3162454.2982257.5337639v4.73c-.0004291.2175185-.1132119.419377-.2982257.5337639-.1850138.114387-.415996.1250653-.6107743.0282361l-3.09-1.545v-2.764zm-13.09-.073c1.4646577-.0628386 2.8972141.4410631 4 1.407v.593h-4c-.5522847 0-1 .4477153-1 1s.4477153 1 1 1h4v.593c-1.1027859.9659369-2.5353423 1.4698386-4 1.407-5.928 0-8.977-1.124-10-1.6l-.013-2.791c1.036-.485 4.085-1.609 10.013-1.609z"/><path id="Shape" d="m7 56h1c.55228475 0 1-.4477153 1-1s-.44771525-1-1-1h-1c-.55228475 0-1 .4477153-1 1s.44771525 1 1 1z"/></g></g></svg>